Coordinates
version=1
nRows=8
nColumns=34
inDegrees=yes

Units are S.I. units (second, meters, Newtons, ...)
If the header above contains a line with 'inDegrees', this indicates whether rotational values are in degrees (yes) or radians (no).

endheader
time	pelvis_tilt	pelvis_list	pelvis_rotation	pelvis_tx	pelvis_ty	pelvis_tz	hip_flexion_r	hip_adduction_r	hip_rotation_r	knee_angle_r	ankle_angle_r	subtalar_angle_r	mtp_angle_r	hip_flexion_l	hip_adduction_l	hip_rotation_l	knee_angle_l	ankle_angle_l	subtalar_angle_l	mtp_angle_l	lumbar_extension	lumbar_bending	lumbar_rotation	arm_flex_r	arm_add_r	arm_rot_r	elbow_flex_r	pro_sup_r	arm_flex_l	arm_add_l	arm_rot_l	elbow_flex_l	pro_sup_l
      4.45000000	      0.16368783	      2.02783713	    -13.26875624	      0.70615407	      0.74699248	      0.04206265	     38.29024809	      0.37502967	     -1.24335393	     76.10200694	     32.61457715	     -6.84709609	      0.00000000	     41.35086148	      3.36702284	     -3.41914921	     75.37616999	     15.88134010	    -27.08984468	      0.00000000	    -13.93064651	      3.26750545	     -0.96070150	     11.55118933	    -10.97819706	     63.12203674	     12.18585069	     34.47585713	      4.35849440	     -8.67147610	     35.84316445	     19.34181330	     54.12947110
      4.46666670	     -1.22175251	      2.56282361	    -13.22100413	      0.69809009	      0.74730379	      0.04140674	     40.28809108	      0.08953636	     -1.36369772	     75.22057941	     31.47690478	     -7.04957167	      0.00000000	     43.04123867	      3.88470841	     -3.02170505	     73.94754797	     14.64124005	    -28.25286973	      0.00000000	    -12.22257931	      2.96210679	     -0.93324866	     11.63246204	    -10.71589092	     61.60376007	     12.33232942	     34.54314410	      4.32387213	     -8.82594359	     36.23143219	     19.37000659	     53.66137311
      4.48333330	     -1.18971027	      2.76489716	    -12.93020590	      0.69117723	      0.76574901	      0.04146117	     39.25503303	     -0.05314283	     -1.65755689	     71.80890546	     29.92016320	     -8.07316721	      0.00000000	     41.82073457	      4.63670901	     -2.14551407	     70.41103323	     12.14455238	    -30.18427877	      0.00000000	    -12.30218712	      2.67724974	     -0.50354098	     11.55981404	    -10.54803682	     58.68561393	     12.73713832	     35.23323188	      4.87573760	     -8.82271038	     36.80201525	     19.22993210	     52.80660733
      4.50000000	     -0.77726976	      2.86320039	    -12.53625996	      0.68854822	      0.77858147	      0.04422310	     37.34456838	     -0.22412610	     -1.99440391	     68.36971264	     27.43424668	     -8.83719705	      0.00000000	     39.83333868	      5.23801039	     -1.24210697	     66.72978840	      9.58294679	    -31.48372097	      0.00000000	    -12.55314675	      2.33817960	     -0.39763802	     11.47434636	    -10.17122214	     56.48817941	     12.85189133	     36.34304154	      5.16720266	     -8.92981666	     37.03987785	     19.11703985	     52.21383414
      4.51666670	     -0.54644304	      2.96635518	    -12.13643152	      0.68523763	      0.78815205	      0.04595654	     35.30271659	     -0.17500748	     -2.18183073	     64.38064877	     25.34419885	    -10.26973763	      0.00000000	     37.61569655	      5.62005991	     -0.54014590	     62.65240362	      8.70304335	    -31.42551541	      0.00000000	    -12.25428091	      1.87215795	     -0.64287985	     11.37598996	     -9.65102975	     55.70486675	     12.88598785	     36.69443716	      5.01090573	     -9.10821179	     37.01506967	     18.77016316	     52.06738463
      4.53333330	     -0.25832841	      2.88866279	    -11.91882753	      0.67871259	      0.79841163	      0.04450209	     33.45018212	     -0.17015976	     -2.70401772	     60.66569956	     23.64705296	    -10.43932988	      0.00000000	     35.70991247	      5.94882506	      0.26561304	     58.97966594	      6.81199444	    -31.67235400	      0.00000000	    -12.15729967	      1.73297691	     -0.35258439	     11.13330876	     -9.41828350	     54.61397672	     12.90065048	     37.14030856	      5.03523881	     -9.03953874	     36.69477301	     18.59948698	     51.86884002
      4.55000000	      0.00336582	      2.60421404	    -11.75854996	      0.66928658	      0.81794755	      0.04416175	     31.17383745	      0.10684915	     -3.25663315	     56.06933586	     21.01846900	    -11.05947228	      0.00000000	     33.53943931	      5.90233910	      1.03976684	     54.64326191	      4.24241934	    -32.24607832	      0.00000000	    -12.09927702	      1.84422746	     -0.02659819	     10.92088350	     -9.30443838	     53.45353659	     13.06158505	     37.63919945	      4.66587412	     -8.67304031	     36.20192660	     18.35253200	     51.68703229
      4.56666670	      0.61375177	      2.31842691	    -11.52440135	      0.66429040	      0.83173402	      0.04373285	     28.12110748	      0.35122883	     -3.58348605	     50.71494931	     18.96131554	    -10.84510256	      0.00000000	     30.75420124	      5.83710372	      1.83398959	     50.05398957	      0.68576938	    -33.95581964	      0.00000000	    -12.43507234	      1.83812438	      0.15187972	     10.73306883	     -9.16303011	     51.71792336	     13.33954596	     38.45094719	      4.31890116	     -8.36127915	     35.33127567	     18.09966734	     51.50008746
